<svg viewBox="0 0 56 56" fill="none" xmlns="http://www.w3.org/2000/svg">
  <circle cx="28" cy="28" r="27" fill="#E86A3A"/>
  <circle cx="28" cy="28" r="21" stroke="#fff" stroke-width="1.2" fill="none" opacity="0.3"/>
  <path d="M12 28c2-5 6-9 11-10c3-0.5 5 0.5 7 3c2-2.5 4-3.5 7-3c5 1 9 5 11 10c-2 5-6 9-11 10c-3 0.5-5-0.5-7-3c-2 2.5-4 3.5-7 3c-5-1-9-5-11-10Z" stroke="#fff" stroke-width="2" stroke-linecap="round" stroke-linejoin="round" fill="none"/>
  <circle cx="20" cy="26" r="2.5" stroke="#fff" stroke-width="1.5" fill="rgba(255,255,255,0.2)"/>
  <circle cx="20" cy="26" r="1" fill="#fff"/>
  <circle cx="36" cy="26" r="2.5" stroke="#fff" stroke-width="1.5" fill="rgba(255,255,255,0.2)"/>
  <circle cx="36" cy="26" r="1" fill="#fff"/>
  <ellipse cx="28" cy="28" rx="3.5" ry="5" stroke="#fff" stroke-width="1.5" fill="none"/>
  <path d="M10 24c-2 2-2 6 0 8" stroke="#fff" stroke-width="1.5" stroke-linecap="round" fill="none"/>
  <path d="M46 24c2 2 2 6 0 8" stroke="#fff" stroke-width="1.5" stroke-linecap="round" fill="none"/>
  <path d="M24 17c2-2 6-2 8 0" stroke="#fff" stroke-width="1.5" stroke-linecap="round" fill="none"/>
  <path d="M24 39c2 2 6 2 8 0" stroke="#fff" stroke-width="1.5" stroke-linecap="round" fill="none"/>
  <circle cx="28" cy="20" r="1" fill="#fff" opacity="0.6"/>
  <circle cx="28" cy="36" r="1" fill="#fff" opacity="0.6"/>
  <circle cx="15" cy="28" r="0.8" fill="#fff" opacity="0.5"/>
  <circle cx="41" cy="28" r="0.8" fill="#fff" opacity="0.5"/>
</svg>
